<svg id="Camada_1" data-name="Camada 1" xmlns="http://www.w3.org/2000/svg" viewBox="0 0 1920 1080"><path d="M554.23,428c.07,60.22-9.55,118.68-32.11,174.71-31,77-81.28,138.85-148.94,186.72a375.65,375.65,0,0,1-52.65,31.1c-5.74,2.8-10.79,2.87-16.59.06-47.51-23.05-88.47-54.8-123.88-93.74C115.73,656.1,81.49,572.21,72.34,477.58,67,421.86,71.18,366.65,81.65,311.81c1.51-7.93,7.14-10.83,15.42-8.42,43.28,12.59,86.71,13.52,130.13.9,28.19-8.19,53.17-22.36,75.19-41.77,7.8-6.88,11.57-6.87,19.32-.11,41.45,36.18,90,52,144.63,50.65a224.42,224.42,0,0,0,62.11-10c7.13-2.25,12.73,1.38,14.19,9A617.21,617.21,0,0,1,554.23,428Zm-30-101.53c-1.16.11-1.9.12-2.62.24-13.61,2.26-27.14,5.45-40.85,6.64-61.51,5.32-117.1-10-165.48-49.16-2.45-2-3.91-2.05-6.36,0a211.5,211.5,0,0,1-48.23,30.15C214.31,335.2,166,339,116.36,329.77c-5.32-1-10.58-2.25-16-3.43-.25,1.05-.49,1.76-.59,2.49-2.14,15.57-4.69,31.1-6.29,46.72C87.8,431,90,486,103.31,540.28a389.37,389.37,0,0,0,87.62,167.47c33.6,38,72.72,69,118,92.07a6.21,6.21,0,0,0,6.33,0,392.9,392.9,0,0,0,111.18-84.44c64.06-69.26,98.18-151.55,105.67-245.25,3-38.08,1.46-76-3.44-113.87C527.43,346.34,525.78,336.48,524.28,326.46Z"/><path d="M239.53,474.59c0-2.34,0-4.21,0-6.08.34-14.18-.58-28.53,1.31-42.5C245,395.1,271,370.22,301.42,366.1c32.59-4.39,63.37,12.24,76.76,41.43a74.59,74.59,0,0,1,6.72,31.35q0,15.6,0,31.19v4.53c3,0,5.5-.07,8,0,10.12.33,16.83,7.15,16.84,17.23q0,70.37,0,140.72a17.27,17.27,0,0,1-17.25,17.25q-80.4.06-160.8,0c-10.41,0-17.08-7.1-17.09-18.16q-.07-52.1,0-104.21c0-11.54,0-23.07,0-34.61s6.7-18.14,18.21-18.23Zm72.41,0c14.83,0,29.66,0,44.48.05,2.54,0,3.58-.6,3.55-3.37-.15-11.41.12-22.82-.14-34.22-.58-25.11-20.56-45.61-45.2-46.66-25.72-1.1-47.52,17.24-49.74,42.84-1.08,12.46-.3,25.08-.57,37.62-.06,3.06.95,3.84,3.9,3.81C282.79,474.51,297.37,474.59,311.94,474.58Zm.1,56.94a19.61,19.61,0,0,0-18.36,13,19.06,19.06,0,0,0,5.86,21.65,6.51,6.51,0,0,1,2.62,5.79q-.18,9.69,0,19.4c.13,6.17,4.59,10.59,10.26,10.42,5.47-.16,9.6-4.65,9.66-10.64.06-6.34.13-12.69,0-19a6.73,6.73,0,0,1,2.84-6.08,19.16,19.16,0,0,0,5.61-21.71A19.62,19.62,0,0,0,312,531.52Z"/><path d="M758.59,564.64c0,1.29,0,2.39-.12,3.29a15.49,15.49,0,0,1-.35,2.32,6.39,6.39,0,0,1-.62,1.67,8.45,8.45,0,0,1-1.23,1.58,15.4,15.4,0,0,1-3.29,2.28,38.57,38.57,0,0,1-6,2.67,51.11,51.11,0,0,1-8,2.13,52.8,52.8,0,0,1-9.79.85,51.36,51.36,0,0,1-18.56-3.17,36.59,36.59,0,0,1-14.09-9.48A42.4,42.4,0,0,1,687.64,553a70.46,70.46,0,0,1-3.1-22A69.35,69.35,0,0,1,688,508.39a47.15,47.15,0,0,1,9.51-16.63,39.81,39.81,0,0,1,14.66-10.21A49.34,49.34,0,0,1,731,478.06a45.76,45.76,0,0,1,8,.7,48.58,48.58,0,0,1,7.16,1.82,36.36,36.36,0,0,1,5.92,2.59,17.86,17.86,0,0,1,3.67,2.51,8.56,8.56,0,0,1,1.43,1.75,6.14,6.14,0,0,1,.62,1.78,19.19,19.19,0,0,1,.35,2.55q.12,1.47.12,3.63c0,1.55,0,2.87-.16,3.95a10,10,0,0,1-.54,2.63,3.65,3.65,0,0,1-.93,1.47,1.84,1.84,0,0,1-1.24.47,5.42,5.42,0,0,1-2.94-1.36,48,48,0,0,0-4.6-3,38,38,0,0,0-6.73-3,28.63,28.63,0,0,0-9.32-1.36,22.05,22.05,0,0,0-18.61,9.4,32.48,32.48,0,0,0-5,10.95,63.57,63.57,0,0,0,.11,29.75,29.38,29.38,0,0,0,5.19,10.64,20.94,20.94,0,0,0,8.12,6.23,26.76,26.76,0,0,0,10.72,2,30.56,30.56,0,0,0,9.36-1.28,39.37,39.37,0,0,0,6.77-2.82q2.82-1.55,4.64-2.79a5.83,5.83,0,0,1,2.83-1.24,2.24,2.24,0,0,1,1.23.31,2.37,2.37,0,0,1,.78,1.24,12.47,12.47,0,0,1,.46,2.59C758.53,561.3,758.59,562.79,758.59,564.64Z"/><path d="M812.05,579.81l-8.36,24.45c-.46,1.29-1.72,2.21-3.79,2.78a47.47,47.47,0,0,1-14,.58,6.81,6.81,0,0,1-2.79-.89,2,2,0,0,1-1-1.54,5,5,0,0,1,.46-2.25l9.21-23.13a5.31,5.31,0,0,1-1.82-1.43,6.84,6.84,0,0,1-1.2-2L765,512.88a13.09,13.09,0,0,1-1-4.14,2.82,2.82,0,0,1,.93-2.24,6,6,0,0,1,3.13-1.12,43.32,43.32,0,0,1,5.85-.31c2.21,0,4,0,5.26.11a9.3,9.3,0,0,1,3,.58,3.28,3.28,0,0,1,1.63,1.43,14.54,14.54,0,0,1,1.08,2.75l16.25,46.19h.23L816.23,509a5.27,5.27,0,0,1,1.2-2.67,5,5,0,0,1,2.44-1,38,38,0,0,1,6-.31,40.54,40.54,0,0,1,5.54.31,6.46,6.46,0,0,1,3.24,1.16,2.76,2.76,0,0,1,1,2.28,11.31,11.31,0,0,1-.62,3.36Z"/><path d="M916.58,541.74a62.82,62.82,0,0,1-2,16.56,38.07,38.07,0,0,1-5.8,12.53,25.75,25.75,0,0,1-9.33,8,27.54,27.54,0,0,1-12.57,2.79,30.39,30.39,0,0,1-6.5-.66,22.2,22.2,0,0,1-5.76-2.13,31.5,31.5,0,0,1-5.42-3.71,50.42,50.42,0,0,1-5.45-5.42v7.51a2.38,2.38,0,0,1-.43,1.43,3.09,3.09,0,0,1-1.39,1,10.29,10.29,0,0,1-2.59.54c-1.09.1-2.4.15-4,.15s-2.93,0-4-.15a10.23,10.23,0,0,1-2.55-.54,2.85,2.85,0,0,1-1.35-1,2.51,2.51,0,0,1-.39-1.43V475.43a2.32,2.32,0,0,1,.46-1.39,3.46,3.46,0,0,1,1.59-1,12.69,12.69,0,0,1,3-.66,48.55,48.55,0,0,1,9.44,0,12.69,12.69,0,0,1,3,.66,3.48,3.48,0,0,1,1.58,1,2.26,2.26,0,0,1,.47,1.39v38.15a40.33,40.33,0,0,1,5.26-4.49,32.5,32.5,0,0,1,5.26-3.06,24,24,0,0,1,5.42-1.74,30.75,30.75,0,0,1,5.88-.54,25.78,25.78,0,0,1,13,3.06,25.14,25.14,0,0,1,8.7,8.24A36.71,36.71,0,0,1,915,527.16,66.71,66.71,0,0,1,916.58,541.74Zm-20.19,1.39a53.55,53.55,0,0,0-.66-8.51,24.51,24.51,0,0,0-2.28-7.27,14.19,14.19,0,0,0-4.22-5.07,10.82,10.82,0,0,0-6.54-1.89,13.51,13.51,0,0,0-3.79.54,14.25,14.25,0,0,0-3.83,1.85,27.62,27.62,0,0,0-4.06,3.41,49.2,49.2,0,0,0-4.41,5.18v22.91a41.5,41.5,0,0,0,7.85,8A13.11,13.11,0,0,0,882.3,565a10.57,10.57,0,0,0,6.43-1.93,15.74,15.74,0,0,0,4.37-5,23.39,23.39,0,0,0,2.51-7A40.77,40.77,0,0,0,896.39,543.13Z"/><path d="M995.89,540.66c0,2.37-.53,4.13-1.59,5.26a5.69,5.69,0,0,1-4.37,1.7h-42a28.57,28.57,0,0,0,1,8,15.28,15.28,0,0,0,3.33,6.11,14.47,14.47,0,0,0,5.88,3.83,25.1,25.1,0,0,0,8.63,1.32,48.49,48.49,0,0,0,9-.74,60,60,0,0,0,6.69-1.62q2.84-.9,4.68-1.63a8.7,8.7,0,0,1,3-.73,2.26,2.26,0,0,1,1.16.27,2,2,0,0,1,.78,1,6.73,6.73,0,0,1,.42,2q.12,1.27.12,3.21c0,1.13,0,2.1-.08,2.9a18.72,18.72,0,0,1-.23,2,4.7,4.7,0,0,1-1.28,2.55,8.89,8.89,0,0,1-2.75,1.47,42.5,42.5,0,0,1-5.72,1.82,79.65,79.65,0,0,1-8,1.55,66,66,0,0,1-9.59.66,51.07,51.07,0,0,1-16.14-2.32,28.8,28.8,0,0,1-11.56-7,29.25,29.25,0,0,1-6.93-11.92,56,56,0,0,1-2.28-16.87,53.5,53.5,0,0,1,2.4-16.59,34.84,34.84,0,0,1,7-12.54,29.94,29.94,0,0,1,11.1-7.85,38.15,38.15,0,0,1,14.74-2.71,38.65,38.65,0,0,1,14.82,2.55,26.91,26.91,0,0,1,10.1,7.08A28.6,28.6,0,0,1,994,524.1a46.64,46.64,0,0,1,1.86,13.46ZM977,535.09q.22-8.21-3.29-12.89t-10.87-4.68a14.08,14.08,0,0,0-6.46,1.4,13.17,13.17,0,0,0-4.57,3.75,17,17,0,0,0-2.78,5.57,27.34,27.34,0,0,0-1.12,6.85Z"/><path d="M1056.24,514.58c0,1.86,0,3.38-.16,4.57a14.2,14.2,0,0,1-.46,2.78,2.83,2.83,0,0,1-.81,1.4,2,2,0,0,1-1.28.38,4.25,4.25,0,0,1-1.39-.27l-1.74-.58c-.65-.2-1.36-.4-2.13-.58a11.34,11.34,0,0,0-2.55-.27,8.54,8.54,0,0,0-3.25.66,13.59,13.59,0,0,0-3.37,2.05,25.75,25.75,0,0,0-3.64,3.71,60.74,60.74,0,0,0-4.06,5.73v43a2.1,2.1,0,0,1-.46,1.35,3.41,3.41,0,0,1-1.59,1,13.75,13.75,0,0,1-3,.58,58.72,58.72,0,0,1-9.44,0,13.75,13.75,0,0,1-3-.58,3.43,3.43,0,0,1-1.58-1,2.11,2.11,0,0,1-.47-1.35v-69a2.35,2.35,0,0,1,.39-1.35,2.83,2.83,0,0,1,1.39-1,11.1,11.1,0,0,1,2.6-.58,33.58,33.58,0,0,1,4-.19,35.59,35.59,0,0,1,4.1.19,9.4,9.4,0,0,1,2.52.58,2.84,2.84,0,0,1,1.27,1,2.35,2.35,0,0,1,.39,1.35v8.59a53.72,53.72,0,0,1,5.11-6.38,28.53,28.53,0,0,1,4.56-4,14.42,14.42,0,0,1,4.33-2.05,16.6,16.6,0,0,1,4.34-.58,21,21,0,0,1,2.16.12,19.24,19.24,0,0,1,2.4.38,18.13,18.13,0,0,1,2.17.62,4.31,4.31,0,0,1,1.35.74,2.47,2.47,0,0,1,.62.85,7,7,0,0,1,.35,1.28,19.22,19.22,0,0,1,.23,2.43C1056.21,511.26,1056.24,512.73,1056.24,514.58Z"/><path d="M1128.73,549.79a30.93,30.93,0,0,1-2.94,13.85,28.75,28.75,0,0,1-8,9.94,34.92,34.92,0,0,1-11.77,6,50,50,0,0,1-14.39,2,52,52,0,0,1-9.63-.85,54.83,54.83,0,0,1-7.85-2,34.11,34.11,0,0,1-5.69-2.52,16.65,16.65,0,0,1-3.29-2.32,5.78,5.78,0,0,1-1.43-2.9,26.84,26.84,0,0,1-.42-5.46c0-1.59.05-2.94.15-4a11.6,11.6,0,0,1,.5-2.63,3,3,0,0,1,.93-1.43,2.27,2.27,0,0,1,1.36-.43,6.42,6.42,0,0,1,3,1.28,55,55,0,0,0,5.07,2.82,44.93,44.93,0,0,0,7.39,2.83,35,35,0,0,0,9.94,1.27,22.8,22.8,0,0,0,6.66-.89,14.9,14.9,0,0,0,5-2.51,10.65,10.65,0,0,0,3.13-4,12.87,12.87,0,0,0,1.08-5.34,9.39,9.39,0,0,0-1.85-5.84,18.44,18.44,0,0,0-4.84-4.34,50.77,50.77,0,0,0-6.77-3.56c-2.53-1.1-5.13-2.28-7.81-3.52a70.14,70.14,0,0,1-7.82-4.21,32,32,0,0,1-6.77-5.65,26.45,26.45,0,0,1-4.83-7.78,28,28,0,0,1-1.86-10.75,28.41,28.41,0,0,1,2.67-12.65,25.91,25.91,0,0,1,7.19-9.05,30.7,30.7,0,0,1,10.68-5.38,46.58,46.58,0,0,1,13-1.78,47.51,47.51,0,0,1,7.12.54,48.22,48.22,0,0,1,6.65,1.47,37.83,37.83,0,0,1,5.49,2.09,12.77,12.77,0,0,1,3.17,1.93,5.6,5.6,0,0,1,1,1.32,6.33,6.33,0,0,1,.46,1.43,14.44,14.44,0,0,1,.27,2.24c.06.91.08,2,.08,3.37,0,1.5,0,2.76-.11,3.79a14.36,14.36,0,0,1-.39,2.55,3,3,0,0,1-.77,1.47,1.94,1.94,0,0,1-1.36.47,6.48,6.48,0,0,1-2.71-1.08c-1.23-.73-2.76-1.51-4.56-2.36a43.17,43.17,0,0,0-6.27-2.33,27.89,27.89,0,0,0-7.81-1,18.78,18.78,0,0,0-5.81.81,11.76,11.76,0,0,0-4.13,2.25,8.71,8.71,0,0,0-2.48,3.44,11.28,11.28,0,0,0-.81,4.25,9.4,9.4,0,0,0,1.81,5.77,17.56,17.56,0,0,0,4.88,4.33,51.85,51.85,0,0,0,6.92,3.56q3.87,1.67,7.9,3.52a77,77,0,0,1,7.89,4.22,31.29,31.29,0,0,1,6.88,5.65,26.41,26.41,0,0,1,4.88,7.73A27.09,27.09,0,0,1,1128.73,549.79Z"/><path d="M1206.88,540.66c0,2.37-.53,4.13-1.59,5.26a5.68,5.68,0,0,1-4.37,1.7h-42a28.94,28.94,0,0,0,1,8,15.28,15.28,0,0,0,3.33,6.11,14.47,14.47,0,0,0,5.88,3.83,25.14,25.14,0,0,0,8.63,1.32,48.49,48.49,0,0,0,9-.74,60.81,60.81,0,0,0,6.7-1.62q2.82-.9,4.68-1.63a8.65,8.65,0,0,1,3-.73,2.29,2.29,0,0,1,1.16.27,2,2,0,0,1,.77,1,6.38,6.38,0,0,1,.43,2c.07.85.11,1.92.11,3.21,0,1.13,0,2.1-.08,2.9a18.72,18.72,0,0,1-.23,2,4.91,4.91,0,0,1-.46,1.43,5.56,5.56,0,0,1-.81,1.12,9.16,9.16,0,0,1-2.75,1.47,43.17,43.17,0,0,1-5.73,1.82,79.09,79.09,0,0,1-8,1.55,66,66,0,0,1-9.59.66,51,51,0,0,1-16.13-2.32,28.77,28.77,0,0,1-11.57-7,29.34,29.34,0,0,1-6.92-11.92,55.7,55.7,0,0,1-2.29-16.87,53.5,53.5,0,0,1,2.4-16.59,34.84,34.84,0,0,1,7-12.54,30.06,30.06,0,0,1,11.11-7.85,38.11,38.11,0,0,1,14.74-2.71,38.63,38.63,0,0,1,14.81,2.55,26.91,26.91,0,0,1,10.1,7.08,28.46,28.46,0,0,1,5.8,10.72,46.64,46.64,0,0,1,1.86,13.46ZM1188,535.09q.24-8.21-3.29-12.89t-10.87-4.68a14.11,14.11,0,0,0-6.46,1.4,13.14,13.14,0,0,0-4.56,3.75,17.24,17.24,0,0,0-2.79,5.57,27.8,27.8,0,0,0-1.12,6.85Z"/><path d="M1275.12,566.19c0,1.34,0,2.46-.11,3.37a20.08,20.08,0,0,1-.31,2.28,7.14,7.14,0,0,1-.47,1.51,5.64,5.64,0,0,1-1.2,1.47,16.68,16.68,0,0,1-3.17,2.16,30.54,30.54,0,0,1-5.1,2.29,41.3,41.3,0,0,1-6.23,1.62,38.58,38.58,0,0,1-6.93.62,37.61,37.61,0,0,1-14.12-2.48,26.47,26.47,0,0,1-10.33-7.31,32.15,32.15,0,0,1-6.3-11.8,54.49,54.49,0,0,1-2.13-15.94,55.22,55.22,0,0,1,2.59-17.91,34.17,34.17,0,0,1,7.24-12.49,28.81,28.81,0,0,1,11-7.35,39.06,39.06,0,0,1,13.93-2.4,33.92,33.92,0,0,1,6.07.54,34.58,34.58,0,0,1,5.57,1.47,30.47,30.47,0,0,1,4.65,2.09,14.2,14.2,0,0,1,2.9,2,9.28,9.28,0,0,1,1.2,1.43,5,5,0,0,1,.54,1.51,20.08,20.08,0,0,1,.31,2.28c.08.91.11,2,.11,3.29a17.81,17.81,0,0,1-.77,6.31c-.52,1.21-1.19,1.82-2,1.82a4.73,4.73,0,0,1-2.79-1.09q-1.47-1.08-3.48-2.4a26.17,26.17,0,0,0-4.8-2.39,18.13,18.13,0,0,0-6.65-1.09q-7.57,0-11.61,5.84t-4,17.14a43,43,0,0,0,1,9.83,20.82,20.82,0,0,0,3,7.12,12.43,12.43,0,0,0,4.95,4.29,15.7,15.7,0,0,0,6.92,1.43,18.13,18.13,0,0,0,6.93-1.2,28.14,28.14,0,0,0,5.06-2.67q2.17-1.47,3.64-2.67a4.31,4.31,0,0,1,2.48-1.2,1.75,1.75,0,0,1,1.16.39,2.76,2.76,0,0,1,.73,1.43A17.34,17.34,0,0,1,1275,562C1275.07,563.1,1275.12,564.49,1275.12,566.19Z"/><path d="M1354.66,577.18a2.45,2.45,0,0,1-.38,1.35,2.83,2.83,0,0,1-1.36,1,10.28,10.28,0,0,1-2.55.58,33.88,33.88,0,0,1-4,.19,35.52,35.52,0,0,1-4.14-.19,9.81,9.81,0,0,1-2.51-.58,2.85,2.85,0,0,1-1.32-1,2.45,2.45,0,0,1-.38-1.35v-8a43.66,43.66,0,0,1-11.65,9.28,26.16,26.16,0,0,1-12.26,3.1,27.66,27.66,0,0,1-12-2.32,20.74,20.74,0,0,1-7.81-6.35,25.59,25.59,0,0,1-4.26-9.32,57.54,57.54,0,0,1-1.27-13.19V508.16a2.23,2.23,0,0,1,.42-1.35,3.16,3.16,0,0,1,1.55-1,13.81,13.81,0,0,1,3-.58c1.26-.13,2.82-.19,4.68-.19a46.93,46.93,0,0,1,4.72.19,13.75,13.75,0,0,1,3,.58,3.37,3.37,0,0,1,1.58,1,2.09,2.09,0,0,1,.47,1.35v39a37.64,37.64,0,0,0,.69,8.28,14.76,14.76,0,0,0,2.13,4.91,9.83,9.83,0,0,0,3.64,3.17,11.15,11.15,0,0,0,5.14,1.12,12.75,12.75,0,0,0,7.47-2.7,44.86,44.86,0,0,0,8-7.9V508.16a2.23,2.23,0,0,1,.42-1.35,3.16,3.16,0,0,1,1.55-1,13.75,13.75,0,0,1,3-.58,58.72,58.72,0,0,1,9.44,0,13,13,0,0,1,2.94.58,3.42,3.42,0,0,1,1.55,1,2.08,2.08,0,0,1,.46,1.35Z"/><path d="M1418.57,514.58c0,1.86,0,3.38-.15,4.57a14.09,14.09,0,0,1-.47,2.78,2.69,2.69,0,0,1-.81,1.4,2,2,0,0,1-1.28.38,4.3,4.3,0,0,1-1.39-.27c-.51-.18-1.1-.37-1.74-.58s-1.35-.4-2.13-.58a11.21,11.21,0,0,0-2.55-.27,8.58,8.58,0,0,0-3.25.66,13.77,13.77,0,0,0-3.37,2.05,25.22,25.22,0,0,0-3.63,3.71,59,59,0,0,0-4.06,5.73v43a2.11,2.11,0,0,1-.47,1.35,3.41,3.41,0,0,1-1.59,1,13.65,13.65,0,0,1-3,.58,58.72,58.72,0,0,1-9.44,0,13.75,13.75,0,0,1-3-.58,3.41,3.41,0,0,1-1.59-1,2.1,2.1,0,0,1-.46-1.35v-69a2.43,2.43,0,0,1,.38-1.35,2.87,2.87,0,0,1,1.4-1,11,11,0,0,1,2.59-.58,33.7,33.7,0,0,1,4-.19,35.59,35.59,0,0,1,4.1.19,9.21,9.21,0,0,1,2.52.58,2.87,2.87,0,0,1,1.28,1,2.43,2.43,0,0,1,.38,1.35v8.59a54.75,54.75,0,0,1,5.11-6.38,29,29,0,0,1,4.56-4,14.47,14.47,0,0,1,4.34-2.05,16.53,16.53,0,0,1,4.33-.58,21.31,21.31,0,0,1,2.17.12,19.38,19.38,0,0,1,2.39.38,17.6,17.6,0,0,1,2.17.62,4.31,4.31,0,0,1,1.35.74,2.24,2.24,0,0,1,.62.85,6.28,6.28,0,0,1,.35,1.28,17.5,17.5,0,0,1,.23,2.43C1418.55,511.26,1418.57,512.73,1418.57,514.58Z"/><path d="M1451.53,484.79c0,3.93-.8,6.63-2.4,8.13s-4.56,2.24-8.89,2.24-7.34-.72-8.86-2.16-2.29-4.05-2.29-7.82q0-5.88,2.36-8.16t8.94-2.28q6.49,0,8.82,2.2T1451.53,484.79Zm-1.47,92.39a2.1,2.1,0,0,1-.46,1.35,3.41,3.41,0,0,1-1.59,1,13.75,13.75,0,0,1-3,.58,58.72,58.72,0,0,1-9.44,0,13.88,13.88,0,0,1-3-.58,3.43,3.43,0,0,1-1.58-1,2.11,2.11,0,0,1-.47-1.35V508.32A2.12,2.12,0,0,1,1431,507a3.71,3.71,0,0,1,1.58-1,12.81,12.81,0,0,1,3-.66,48.55,48.55,0,0,1,9.44,0,12.69,12.69,0,0,1,3,.66,3.69,3.69,0,0,1,1.59,1,2.11,2.11,0,0,1,.46,1.36Z"/><path d="M1510.34,570.37a24.5,24.5,0,0,1-.43,5.22,5.64,5.64,0,0,1-1.12,2.55,6.1,6.1,0,0,1-2,1.32,19.77,19.77,0,0,1-3.17,1,33.22,33.22,0,0,1-4,.65,38.28,38.28,0,0,1-4.29.24,31.11,31.11,0,0,1-10.06-1.47,16.63,16.63,0,0,1-7-4.53,18.85,18.85,0,0,1-4.11-7.7,40.87,40.87,0,0,1-1.31-11V521.31h-8.28a2.45,2.45,0,0,1-2.24-1.81,16.84,16.84,0,0,1-.78-6.08,31,31,0,0,1,.2-3.79,9.2,9.2,0,0,1,.58-2.44,2.83,2.83,0,0,1,1-1.27,2.39,2.39,0,0,1,1.36-.39h8.2v-15.4a2.36,2.36,0,0,1,.43-1.39,3.13,3.13,0,0,1,1.54-1,12.11,12.11,0,0,1,3-.62,46.64,46.64,0,0,1,4.68-.2c1.91,0,3.5.07,4.76.2a11.46,11.46,0,0,1,3,.62,3.48,3.48,0,0,1,1.55,1,2.25,2.25,0,0,1,.46,1.39v15.4h15a2.33,2.33,0,0,1,1.35.39,2.84,2.84,0,0,1,1,1.27,9.2,9.2,0,0,1,.58,2.44,31,31,0,0,1,.2,3.79,16.84,16.84,0,0,1-.78,6.08,2.45,2.45,0,0,1-2.24,1.81h-15.09v32.42c0,3.77.59,6.59,1.78,8.48s3.3,2.82,6.34,2.82a13.14,13.14,0,0,0,2.79-.27,17.93,17.93,0,0,0,2.2-.62c.65-.23,1.19-.44,1.63-.62a3.2,3.2,0,0,1,1.2-.27,1.65,1.65,0,0,1,.89.27,1.86,1.86,0,0,1,.66,1.08,18.35,18.35,0,0,1,.42,2.21A26.49,26.49,0,0,1,1510.34,570.37Z"/><path d="M1564.42,579.81l-8.36,24.45c-.46,1.29-1.73,2.21-3.79,2.78a47.47,47.47,0,0,1-14,.58,6.81,6.81,0,0,1-2.79-.89,2,2,0,0,1-1-1.54,4.9,4.9,0,0,1,.46-2.25l9.21-23.13a5.31,5.31,0,0,1-1.82-1.43,6.84,6.84,0,0,1-1.2-2l-23.75-63.45a13.09,13.09,0,0,1-1-4.14,2.82,2.82,0,0,1,.93-2.24,6,6,0,0,1,3.13-1.12,43.25,43.25,0,0,1,5.84-.31c2.22,0,4,0,5.27.11a9.36,9.36,0,0,1,3,.58,3.32,3.32,0,0,1,1.63,1.43,14.54,14.54,0,0,1,1.08,2.75l16.25,46.19h.23L1568.6,509a5.27,5.27,0,0,1,1.2-2.67,5,5,0,0,1,2.43-1,38.11,38.11,0,0,1,6-.31,40.28,40.28,0,0,1,5.53.31,6.5,6.5,0,0,1,3.25,1.16,2.76,2.76,0,0,1,1,2.28,11.31,11.31,0,0,1-.62,3.36Z"/><path d="M1691.46,571.3a32.81,32.81,0,0,1-.19,3.9,11.87,11.87,0,0,1-.58,2.64,3.39,3.39,0,0,1-1,1.5,2.09,2.09,0,0,1-1.35.47h-45.88a6.32,6.32,0,0,1-4.3-1.51c-1.16-1-1.74-2.64-1.74-4.91V482.47a2.13,2.13,0,0,1,.51-1.39,3.41,3.41,0,0,1,1.66-1,15.76,15.76,0,0,1,3.13-.62,50.86,50.86,0,0,1,9.87,0,15.58,15.58,0,0,1,3.09.62,3.5,3.5,0,0,1,1.67,1,2.18,2.18,0,0,1,.5,1.39V563h31.49a2.23,2.23,0,0,1,1.35.42,3.13,3.13,0,0,1,1,1.4,10.28,10.28,0,0,1,.58,2.55A33,33,0,0,1,1691.46,571.3Z"/><path d="M1761.1,577.41a2.07,2.07,0,0,1-.77,1.7,5.24,5.24,0,0,1-2.44.89,33.15,33.15,0,0,1-4.91.27,33.51,33.51,0,0,1-5.07-.27,4.31,4.31,0,0,1-2.25-.89,2.21,2.21,0,0,1-.65-1.7v-5.49a31.48,31.48,0,0,1-9.71,7.11,28.14,28.14,0,0,1-12.11,2.56,34,34,0,0,1-10.1-1.43,22.85,22.85,0,0,1-8-4.26,19.22,19.22,0,0,1-5.22-7,23.82,23.82,0,0,1-1.86-9.75,22.08,22.08,0,0,1,2.36-10.48,19.11,19.11,0,0,1,7-7.35,34.93,34.93,0,0,1,11.65-4.3,83.06,83.06,0,0,1,16.17-1.39H1742v-4.18a21.91,21.91,0,0,0-.66-5.69,9.46,9.46,0,0,0-2.17-4.06,9,9,0,0,0-4-2.4,21.69,21.69,0,0,0-6.23-.77,32.06,32.06,0,0,0-8.7,1.08,50.23,50.23,0,0,0-6.77,2.4q-2.94,1.32-4.92,2.4a7.16,7.16,0,0,1-3.21,1.08,2.33,2.33,0,0,1-1.51-.54,4.11,4.11,0,0,1-1.08-1.55,11.09,11.09,0,0,1-.66-2.47,21.5,21.5,0,0,1-.23-3.25,14.62,14.62,0,0,1,.39-3.79,5.9,5.9,0,0,1,1.47-2.52,14.48,14.48,0,0,1,3.79-2.47,44.75,44.75,0,0,1,6.34-2.52,59.33,59.33,0,0,1,7.94-1.89,58,58,0,0,1,22.74.85,23.34,23.34,0,0,1,9.48,4.87,19,19,0,0,1,5.42,8.47,39.79,39.79,0,0,1,1.7,12.31ZM1742,547.85h-7.43a40.22,40.22,0,0,0-8,.7,15.33,15.33,0,0,0-5.41,2.09A8.64,8.64,0,0,0,1718,554a10.26,10.26,0,0,0-1,4.53,8.71,8.71,0,0,0,2.75,6.81q2.75,2.48,7.62,2.48a14.31,14.31,0,0,0,7.55-2.09,31.38,31.38,0,0,0,7-6.12Z"/><path d="M1850,541.74a62.82,62.82,0,0,1-2,16.56,38.07,38.07,0,0,1-5.8,12.53,25.75,25.75,0,0,1-9.33,8,27.54,27.54,0,0,1-12.57,2.79,30.39,30.39,0,0,1-6.5-.66,22.2,22.2,0,0,1-5.76-2.13,31.12,31.12,0,0,1-5.42-3.71,51.38,51.38,0,0,1-5.46-5.42v7.51a2.37,2.37,0,0,1-.42,1.43,3.09,3.09,0,0,1-1.39,1,10.28,10.28,0,0,1-2.6.54c-1.08.1-2.39.15-3.94.15s-2.93,0-4-.15a10.23,10.23,0,0,1-2.55-.54,2.8,2.8,0,0,1-1.35-1,2.51,2.51,0,0,1-.39-1.43V475.43A2.25,2.25,0,0,1,1781,474a3.46,3.46,0,0,1,1.59-1,12.69,12.69,0,0,1,3-.66,48.55,48.55,0,0,1,9.44,0,12.69,12.69,0,0,1,3,.66,3.42,3.42,0,0,1,1.58,1,2.26,2.26,0,0,1,.47,1.39v38.15a39.68,39.68,0,0,1,5.26-4.49,32.5,32.5,0,0,1,5.26-3.06,24,24,0,0,1,5.42-1.74,30.75,30.75,0,0,1,5.88-.54,25.78,25.78,0,0,1,13,3.06,25.14,25.14,0,0,1,8.7,8.24,36.71,36.71,0,0,1,4.91,12.11A66.71,66.71,0,0,1,1850,541.74Zm-20.19,1.39a53.55,53.55,0,0,0-.66-8.51,24.51,24.51,0,0,0-2.28-7.27,14.19,14.19,0,0,0-4.22-5.07,10.82,10.82,0,0,0-6.54-1.89,13.51,13.51,0,0,0-3.79.54,14.25,14.25,0,0,0-3.83,1.85,27.11,27.11,0,0,0-4.06,3.41,46.93,46.93,0,0,0-4.41,5.18v22.91a41.5,41.5,0,0,0,7.85,8,13.11,13.11,0,0,0,7.85,2.75,10.57,10.57,0,0,0,6.43-1.93,15.74,15.74,0,0,0,4.37-5,23.39,23.39,0,0,0,2.51-7A40.77,40.77,0,0,0,1829.81,543.13Z"/><path d="M1331.6,649.85a33.79,33.79,0,0,1-1.06,8.84,19.19,19.19,0,0,1-3.13,6.64,13.93,13.93,0,0,1-5.1,4.21,15.68,15.68,0,0,1-7,1.48,13.68,13.68,0,0,1-3.09-.33,11.81,11.81,0,0,1-2.77-1,16.39,16.39,0,0,1-2.69-1.8c-.89-.72-1.83-1.57-2.83-2.54v18.76a1,1,0,0,1-.17.58,1.26,1.26,0,0,1-.54.42,4.06,4.06,0,0,1-1,.25,15.81,15.81,0,0,1-1.71.08,15.27,15.27,0,0,1-1.67-.08,4.36,4.36,0,0,1-1.06-.25,1.15,1.15,0,0,1-.54-.42,1.11,1.11,0,0,1-.15-.58V631.68a1.16,1.16,0,0,1,.13-.6,1,1,0,0,1,.5-.4,3.22,3.22,0,0,1,1-.23,14.1,14.1,0,0,1,1.41-.06,13.92,13.92,0,0,1,1.44.06,3.15,3.15,0,0,1,.94.23,1.11,1.11,0,0,1,.52.4,1.07,1.07,0,0,1,.15.6v5a38.66,38.66,0,0,1,3.29-3,19.63,19.63,0,0,1,3.19-2.15,14.78,14.78,0,0,1,3.29-1.29,15.53,15.53,0,0,1,10.52,1.15,13.07,13.07,0,0,1,4.69,4.33,19.49,19.49,0,0,1,2.65,6.4A35,35,0,0,1,1331.6,649.85Zm-7.13.79a33.66,33.66,0,0,0-.44-5.56,15.8,15.8,0,0,0-1.51-4.77,9,9,0,0,0-2.87-3.34,7.72,7.72,0,0,0-4.49-1.25,8.85,8.85,0,0,0-2.64.4,10.84,10.84,0,0,0-2.64,1.25,19.19,19.19,0,0,0-2.81,2.25,34.57,34.57,0,0,0-3.1,3.44V658a29.74,29.74,0,0,0,5.41,5.29,9.07,9.07,0,0,0,5.37,1.83,7.76,7.76,0,0,0,4.46-1.25,9.43,9.43,0,0,0,3-3.33,16.93,16.93,0,0,0,1.7-4.67A25.39,25.39,0,0,0,1324.47,650.64Z"/><path d="M1376.82,650a28.31,28.31,0,0,1-1.21,8.44,18.61,18.61,0,0,1-3.61,6.64,16.11,16.11,0,0,1-6,4.36,20.87,20.87,0,0,1-8.35,1.56,21.82,21.82,0,0,1-8.07-1.37,14.8,14.8,0,0,1-5.73-4,17,17,0,0,1-3.41-6.38,29.6,29.6,0,0,1-1.13-8.5,28.6,28.6,0,0,1,1.19-8.44,18.3,18.3,0,0,1,3.58-6.65,16.1,16.1,0,0,1,6-4.33,21,21,0,0,1,8.38-1.55,21.56,21.56,0,0,1,8.06,1.38,14.65,14.65,0,0,1,5.73,4,17.12,17.12,0,0,1,3.44,6.38A28.71,28.71,0,0,1,1376.82,650Zm-7.13.46a28,28,0,0,0-.57-5.76,14.18,14.18,0,0,0-1.87-4.75,9.33,9.33,0,0,0-3.53-3.23,11.75,11.75,0,0,0-5.55-1.18,11.9,11.9,0,0,0-5.28,1.08,9.72,9.72,0,0,0-3.64,3.06,13.72,13.72,0,0,0-2.12,4.69,24,24,0,0,0-.69,5.92,28.8,28.8,0,0,0,.56,5.79,13.54,13.54,0,0,0,1.9,4.73,9.41,9.41,0,0,0,3.55,3.21,13.39,13.39,0,0,0,10.81.1,9.75,9.75,0,0,0,3.66-3,13.28,13.28,0,0,0,2.1-4.66A24.71,24.71,0,0,0,1369.69,650.48Z"/><path d="M1408.87,634.14c0,.61,0,1.12,0,1.54a3.68,3.68,0,0,1-.16,1,1.51,1.51,0,0,1-.31.54.7.7,0,0,1-.53.19,2.22,2.22,0,0,1-.81-.19c-.32-.12-.68-.25-1.08-.37s-.86-.25-1.36-.36a7.54,7.54,0,0,0-1.62-.16,5.16,5.16,0,0,0-2,.41,8.06,8.06,0,0,0-2.11,1.38,17,17,0,0,0-2.31,2.54q-1.21,1.59-2.67,3.88v24.67a.87.87,0,0,1-.17.56,1.31,1.31,0,0,1-.54.4,4,4,0,0,1-1,.25,15.54,15.54,0,0,1-1.71.08,15.07,15.07,0,0,1-1.66-.08,4.45,4.45,0,0,1-1.07-.25,1.19,1.19,0,0,1-.54-.4,1,1,0,0,1-.15-.56V631.68a1.19,1.19,0,0,1,.13-.56,1.08,1.08,0,0,1,.5-.42,2.91,2.91,0,0,1,1-.25c.39,0,.9-.06,1.54-.06s1.12,0,1.52.06a2.54,2.54,0,0,1,.94.25,1.34,1.34,0,0,1,.48.42,1,1,0,0,1,.14.56v5.46a30.35,30.35,0,0,1,2.9-3.67,16.24,16.24,0,0,1,2.56-2.23,8.09,8.09,0,0,1,2.4-1.12,9.31,9.31,0,0,1,2.4-.32c.36,0,.77,0,1.23.07a11.43,11.43,0,0,1,1.43.23,12,12,0,0,1,1.36.37,2.76,2.76,0,0,1,.85.42,1.27,1.27,0,0,1,.34.39,3.14,3.14,0,0,1,.14.48,6.31,6.31,0,0,1,.09.86C1408.86,633,1408.87,633.5,1408.87,634.14Z"/><path d="M1426.87,636.89a11,11,0,0,1-.19,2.25,3,3,0,0,1-.71,1.48,2.76,2.76,0,0,1-1.35.79,8.33,8.33,0,0,1-2.13.23,8.43,8.43,0,0,1-2.16-.23,2.73,2.73,0,0,1-1.34-.79,3.13,3.13,0,0,1-.68-1.48,11,11,0,0,1-.19-2.25,12,12,0,0,1,.19-2.36,3.16,3.16,0,0,1,.68-1.5,2.81,2.81,0,0,1,1.34-.79,8.43,8.43,0,0,1,2.16-.23,8.33,8.33,0,0,1,2.13.23,2.84,2.84,0,0,1,1.35.79,3,3,0,0,1,.71,1.5A12,12,0,0,1,1426.87,636.89Zm0,28.92a11.26,11.26,0,0,1-.19,2.29,2.9,2.9,0,0,1-.71,1.48,2.78,2.78,0,0,1-1.35.8,8.39,8.39,0,0,1-2.13.22,8.48,8.48,0,0,1-2.16-.22,2.74,2.74,0,0,1-1.34-.8,3,3,0,0,1-.68-1.48,11.26,11.26,0,0,1-.19-2.29,11.61,11.61,0,0,1,.19-2.31A3,3,0,0,1,1419,662a2.89,2.89,0,0,1,1.34-.79,7.53,7.53,0,0,1,2.16-.25,7.44,7.44,0,0,1,2.13.25,2.92,2.92,0,0,1,1.35.79,2.82,2.82,0,0,1,.71,1.48A11.61,11.61,0,0,1,1426.87,665.81Z"/><path d="M1501.09,642.47a37.68,37.68,0,0,1-1.79,12.24,22.18,22.18,0,0,1-5.23,8.66,21.48,21.48,0,0,1-8.44,5.15,36.92,36.92,0,0,1-11.92,1.71h-11.42a3,3,0,0,1-1.81-.65,2.66,2.66,0,0,1-.85-2.27V619.22a2.68,2.68,0,0,1,.85-2.27,3,3,0,0,1,1.81-.65h12.21a34.09,34.09,0,0,1,11.84,1.81,21.69,21.69,0,0,1,8.11,5.21,22.4,22.4,0,0,1,5,8.23A33.21,33.21,0,0,1,1501.09,642.47Zm-7.54.3a29.47,29.47,0,0,0-1.08-8.15,17.56,17.56,0,0,0-3.4-6.52,15.64,15.64,0,0,0-5.85-4.3,23.26,23.26,0,0,0-9.13-1.54h-7.3v42h7.38a25.6,25.6,0,0,0,8.71-1.29,14.33,14.33,0,0,0,5.92-4,17.27,17.27,0,0,0,3.56-6.69A33.9,33.9,0,0,0,1493.55,642.77Z"/><path d="M1519,619c0,1.61-.3,2.71-.91,3.29a4.9,4.9,0,0,1-3.38.88,4.84,4.84,0,0,1-3.31-.86c-.6-.57-.9-1.64-.9-3.23a4.52,4.52,0,0,1,.92-3.29,5,5,0,0,1,3.37-.87,4.86,4.86,0,0,1,3.32.85C1518.72,616.35,1519,617.43,1519,619Zm-.79,50.18a.93.93,0,0,1-.16.56,1.43,1.43,0,0,1-.55.4,4,4,0,0,1-1,.25,15.54,15.54,0,0,1-1.71.08,15.07,15.07,0,0,1-1.66-.08,4.45,4.45,0,0,1-1.07-.25,1.19,1.19,0,0,1-.54-.4,1,1,0,0,1-.14-.56V631.68a1,1,0,0,1,.14-.54,1.09,1.09,0,0,1,.54-.42,4.45,4.45,0,0,1,1.07-.25,15.07,15.07,0,0,1,1.66-.08,15.54,15.54,0,0,1,1.71.08,4,4,0,0,1,1,.25,1.28,1.28,0,0,1,.55.42,1,1,0,0,1,.16.54Z"/><path d="M1562.94,648.81a2.86,2.86,0,0,1-.82,2.31,2.79,2.79,0,0,1-1.86.69h-24.7a23.14,23.14,0,0,0,.63,5.63,10.89,10.89,0,0,0,2.09,4.29,9.51,9.51,0,0,0,3.81,2.75,15.21,15.21,0,0,0,5.74,1,23.48,23.48,0,0,0,4.77-.44,28.18,28.18,0,0,0,3.63-1c1-.36,1.85-.69,2.51-1a4.18,4.18,0,0,1,1.49-.44,1,1,0,0,1,.52.15,1,1,0,0,1,.36.44,3.07,3.07,0,0,1,.18.81,11.11,11.11,0,0,1,.07,1.27,8.47,8.47,0,0,1,0,.94,6.39,6.39,0,0,1-.1.71,1.8,1.8,0,0,1-.21.56,2.37,2.37,0,0,1-.37.48,6.71,6.71,0,0,1-1.36.75,19.12,19.12,0,0,1-2.91,1c-1.2.33-2.58.63-4.15.9a30.79,30.79,0,0,1-5,.39,23.27,23.27,0,0,1-8.11-1.29,15,15,0,0,1-5.85-3.83,16.4,16.4,0,0,1-3.59-6.38,29.93,29.93,0,0,1-1.21-8.92,28.22,28.22,0,0,1,1.25-8.69,18.48,18.48,0,0,1,3.61-6.54,15.75,15.75,0,0,1,5.69-4.13,18.62,18.62,0,0,1,7.46-1.44,18.12,18.12,0,0,1,7.52,1.42,14.31,14.31,0,0,1,5.1,3.81,15.22,15.22,0,0,1,2.94,5.63,24.43,24.43,0,0,1,.94,6.9Zm-6.92-2c.09-3.62-.72-6.45-2.41-8.51s-4.2-3.08-7.53-3.08a9.92,9.92,0,0,0-4.48,1,9.68,9.68,0,0,0-3.23,2.54,11.54,11.54,0,0,0-2,3.69,15,15,0,0,0-.8,4.4Z"/><path d="M1604.74,633.39a4.11,4.11,0,0,1-.4,2.1,1.17,1.17,0,0,1-1,.65H1598a8.45,8.45,0,0,1,2,3.31,12.22,12.22,0,0,1,.58,3.77,14.8,14.8,0,0,1-1,5.76,11.61,11.61,0,0,1-3,4.23,13.38,13.38,0,0,1-4.6,2.64,18.16,18.16,0,0,1-5.92.92,15.21,15.21,0,0,1-4.36-.61,9.21,9.21,0,0,1-3.19-1.52,6.5,6.5,0,0,0-1.22,1.71,4.89,4.89,0,0,0-.48,2.21,2.88,2.88,0,0,0,1.35,2.42,6.6,6.6,0,0,0,3.61,1l9.79.42a20,20,0,0,1,5.13.77,12.77,12.77,0,0,1,4,2,9,9,0,0,1,2.67,3.12,9.42,9.42,0,0,1,1,4.32,11.53,11.53,0,0,1-1.08,4.91,11.33,11.33,0,0,1-3.31,4.11,16.71,16.71,0,0,1-5.69,2.79,29.08,29.08,0,0,1-8.17,1,33.54,33.54,0,0,1-7.73-.77,16.82,16.82,0,0,1-5.23-2.1,8.21,8.21,0,0,1-3-3.19,9,9,0,0,1-.92-4,10.29,10.29,0,0,1,.34-2.67,9.42,9.42,0,0,1,1-2.46,12.16,12.16,0,0,1,1.71-2.23,21.39,21.39,0,0,1,2.35-2.1,7.36,7.36,0,0,1-3-2.63,6.43,6.43,0,0,1-1-3.42,9.74,9.74,0,0,1,1-4.54,15.16,15.16,0,0,1,2.59-3.58,12.15,12.15,0,0,1-2-3.48,13.07,13.07,0,0,1-.75-4.69,14.38,14.38,0,0,1,1.09-5.75,12.16,12.16,0,0,1,3-4.3,13.19,13.19,0,0,1,4.6-2.68,17.57,17.57,0,0,1,5.86-.94,24.54,24.54,0,0,1,3.19.19,20.34,20.34,0,0,1,2.77.52h11.33a1.15,1.15,0,0,1,1.07.68A4.9,4.9,0,0,1,1604.74,633.39ZM1597.45,673a4.22,4.22,0,0,0-2-3.73,10.15,10.15,0,0,0-5.36-1.4l-9.71-.33a18.64,18.64,0,0,0-2.19,2,10.76,10.76,0,0,0-1.35,1.79,6.15,6.15,0,0,0-.69,1.69,8.15,8.15,0,0,0-.19,1.71,4.42,4.42,0,0,0,2.75,4.1,17.24,17.24,0,0,0,7.67,1.4,19.33,19.33,0,0,0,5.23-.6A10.06,10.06,0,0,0,1595,678a5.86,5.86,0,0,0,1.85-2.29A6.66,6.66,0,0,0,1597.45,673ZM1594,643.27a8.14,8.14,0,0,0-2.11-6,8,8,0,0,0-6-2.15,8.34,8.34,0,0,0-3.48.67,6.84,6.84,0,0,0-2.46,1.83,7.77,7.77,0,0,0-1.45,2.69,10.48,10.48,0,0,0-.48,3.19,7.33,7.33,0,0,0,8,8,8.91,8.91,0,0,0,3.54-.65,6.69,6.69,0,0,0,2.48-1.79,7.7,7.7,0,0,0,1.46-2.65A10.17,10.17,0,0,0,1594,643.27Z"/><path d="M1647.87,650a28.31,28.31,0,0,1-1.2,8.44,18.61,18.61,0,0,1-3.61,6.64,16.27,16.27,0,0,1-6,4.36,20.89,20.89,0,0,1-8.36,1.56,21.76,21.76,0,0,1-8.06-1.37,14.8,14.8,0,0,1-5.73-4,17,17,0,0,1-3.42-6.38,29.61,29.61,0,0,1-1.12-8.5,28.6,28.6,0,0,1,1.18-8.44,18.47,18.47,0,0,1,3.59-6.65,16.1,16.1,0,0,1,6-4.33,21,21,0,0,1,8.38-1.55,21.56,21.56,0,0,1,8.06,1.38,14.8,14.8,0,0,1,5.73,4,17.26,17.26,0,0,1,3.44,6.38A29.06,29.06,0,0,1,1647.87,650Zm-7.12.46a28,28,0,0,0-.57-5.76,14.18,14.18,0,0,0-1.87-4.75,9.4,9.4,0,0,0-3.53-3.23,11.75,11.75,0,0,0-5.55-1.18,11.9,11.9,0,0,0-5.28,1.08,9.64,9.64,0,0,0-3.64,3.06,13.72,13.72,0,0,0-2.12,4.69,23.5,23.5,0,0,0-.7,5.92,28.08,28.08,0,0,0,.57,5.79,13.72,13.72,0,0,0,1.89,4.73,9.52,9.52,0,0,0,3.56,3.21,13.37,13.37,0,0,0,10.8.1,9.59,9.59,0,0,0,3.66-3,12.93,12.93,0,0,0,2.1-4.66A24.7,24.7,0,0,0,1640.75,650.48Z"/><path d="M1718.47,667.69a5.45,5.45,0,0,1,.36,1.48,1,1,0,0,1-.32.85,2,2,0,0,1-1.1.38c-.51.05-1.2.08-2.06.08s-1.55,0-2.07-.06a4.39,4.39,0,0,1-1.16-.21,1.26,1.26,0,0,1-.59-.4,3.18,3.18,0,0,1-.35-.62l-4.63-13.13h-22.42l-4.42,13a2.09,2.09,0,0,1-.33.65,1.71,1.71,0,0,1-.6.46,4.06,4.06,0,0,1-1.13.27c-.48.05-1.12.08-1.89.08a17.25,17.25,0,0,1-2-.1,2,2,0,0,1-1.09-.4,1.05,1.05,0,0,1-.29-.85,5,5,0,0,1,.35-1.48l18.09-50.1a2.29,2.29,0,0,1,.44-.75,1.82,1.82,0,0,1,.79-.46,6.59,6.59,0,0,1,1.33-.23c.55,0,1.23-.06,2.07-.06s1.62,0,2.21.06a7.12,7.12,0,0,1,1.41.23,1.9,1.9,0,0,1,.84.48,2.54,2.54,0,0,1,.46.77Zm-23.21-44.22h0l-9.3,26.88h18.76Z"/><path d="M1733.56,669.19a.93.93,0,0,1-.17.56,1.31,1.31,0,0,1-.54.4,4.06,4.06,0,0,1-1,.25,15.81,15.81,0,0,1-1.71.08,15.27,15.27,0,0,1-1.67-.08,4.36,4.36,0,0,1-1.06-.25,1.19,1.19,0,0,1-.54-.4,1,1,0,0,1-.15-.56V613.51a1,1,0,0,1,.69-1,3.94,3.94,0,0,1,1.06-.25,13.11,13.11,0,0,1,1.67-.08,13.59,13.59,0,0,1,1.71.08,3.68,3.68,0,0,1,1,.25,1.19,1.19,0,0,1,.54.42,1,1,0,0,1,.17.58Z"/><path d="M1777,631.6c0,.11,0,.23,0,.35s0,.26-.07.4-.06.29-.1.46-.09.34-.15.54L1763.9,669a2.29,2.29,0,0,1-.44.75,1.84,1.84,0,0,1-.81.46,6.36,6.36,0,0,1-1.38.23c-.55,0-1.25.06-2.08.06s-1.53,0-2.08-.08a7.25,7.25,0,0,1-1.36-.25,2,2,0,0,1-.81-.46,2,2,0,0,1-.46-.71l-12.75-35.63c-.11-.34-.2-.63-.27-.88a5.52,5.52,0,0,1-.13-.56c0-.13,0-.23,0-.31a1,1,0,0,1,.17-.59,1.1,1.1,0,0,1,.56-.39,3.72,3.72,0,0,1,1-.19c.43,0,1,0,1.61,0,.8,0,1.45,0,1.93.06a3.82,3.82,0,0,1,1.13.23,1.32,1.32,0,0,1,.58.42,2.74,2.74,0,0,1,.36.62l10.58,30.92.17.5.12-.5L1770,631.72a1.44,1.44,0,0,1,.3-.62,1.53,1.53,0,0,1,.6-.42,3.73,3.73,0,0,1,1.08-.23c.46,0,1.07-.06,1.82-.06s1.16,0,1.58,0a2.87,2.87,0,0,1,1,.21,1.15,1.15,0,0,1,.5.39A1,1,0,0,1,1777,631.6Z"/><path d="M1816,648.81a2.89,2.89,0,0,1-.81,2.31,2.83,2.83,0,0,1-1.87.69h-24.7a23.14,23.14,0,0,0,.63,5.63,11,11,0,0,0,2.09,4.29,9.51,9.51,0,0,0,3.81,2.75,15.21,15.21,0,0,0,5.74,1,23.65,23.65,0,0,0,4.78-.44,28.44,28.44,0,0,0,3.62-1c1-.36,1.86-.69,2.51-1a4.18,4.18,0,0,1,1.49-.44.93.93,0,0,1,.88.59,3.46,3.46,0,0,1,.19.81,11.38,11.38,0,0,1,.06,1.27,8.69,8.69,0,0,1,0,.94,6.27,6.27,0,0,1-.11.71,1.8,1.8,0,0,1-.21.56,2.06,2.06,0,0,1-.37.48,6.23,6.23,0,0,1-1.35.75,19.29,19.29,0,0,1-2.92,1c-1.2.33-2.58.63-4.15.9a30.7,30.7,0,0,1-5,.39,23.31,23.31,0,0,1-8.11-1.29,15,15,0,0,1-5.85-3.83,16.4,16.4,0,0,1-3.59-6.38,30,30,0,0,1-1.2-8.92,27.92,27.92,0,0,1,1.25-8.69,18.31,18.31,0,0,1,3.6-6.54,15.84,15.84,0,0,1,5.69-4.13,18.62,18.62,0,0,1,7.46-1.44,18.12,18.12,0,0,1,7.52,1.42,14.43,14.43,0,0,1,5.11,3.81,15.52,15.52,0,0,1,2.94,5.63,24.8,24.8,0,0,1,.93,6.9Zm-6.92-2c.09-3.62-.72-6.45-2.41-8.51s-4.2-3.08-7.52-3.08a10,10,0,0,0-4.49,1,9.78,9.78,0,0,0-3.23,2.54,11.54,11.54,0,0,0-2,3.69,15.35,15.35,0,0,0-.8,4.4Z"/><path d="M1850,659a11.84,11.84,0,0,1-1.06,5.12,10.55,10.55,0,0,1-3,3.8,13.92,13.92,0,0,1-4.67,2.33,21.12,21.12,0,0,1-6,.79,22.1,22.1,0,0,1-3.81-.31,22.6,22.6,0,0,1-3.26-.79,17.79,17.79,0,0,1-2.43-1,7,7,0,0,1-1.46-.94,2.4,2.4,0,0,1-.67-1.17,7.87,7.87,0,0,1-.21-2,8.24,8.24,0,0,1,.09-1.33,4.46,4.46,0,0,1,.2-.88,1,1,0,0,1,.36-.48.92.92,0,0,1,.52-.14,2.85,2.85,0,0,1,1.35.56c.6.37,1.34.78,2.21,1.23a21.44,21.44,0,0,0,3.11,1.23,13.92,13.92,0,0,0,4.12.56,12.37,12.37,0,0,0,3.17-.37A7.5,7.5,0,0,0,1841,664a4.92,4.92,0,0,0,1.6-1.85,5.84,5.84,0,0,0,.57-2.67,4.27,4.27,0,0,0-.82-2.67,7.86,7.86,0,0,0-2.14-1.92,18.21,18.21,0,0,0-3-1.47l-3.44-1.36a37.31,37.31,0,0,1-3.46-1.6,13.27,13.27,0,0,1-3-2.19,9.9,9.9,0,0,1-2.15-3.09,10.33,10.33,0,0,1-.81-4.29,10.76,10.76,0,0,1,.85-4.23,9.77,9.77,0,0,1,2.57-3.54,12.89,12.89,0,0,1,4.27-2.44,17.77,17.77,0,0,1,6-.92,19,19,0,0,1,3,.25,21.31,21.31,0,0,1,2.71.63,13.42,13.42,0,0,1,2.06.81,8.86,8.86,0,0,1,1.29.77,2.3,2.3,0,0,1,.59.59,2.17,2.17,0,0,1,.21.56c0,.21.08.46.12.77a9,9,0,0,1,.06,1.13,11,11,0,0,1-.06,1.23,2.93,2.93,0,0,1-.21.85,1.15,1.15,0,0,1-.35.48.76.76,0,0,1-.46.14,2.31,2.31,0,0,1-1.08-.45,14.32,14.32,0,0,0-1.84-1,19.2,19.2,0,0,0-2.64-1,12,12,0,0,0-3.48-.46,11.05,11.05,0,0,0-3.09.39,6,6,0,0,0-2.19,1.13,4.74,4.74,0,0,0-1.29,1.73,5.39,5.39,0,0,0-.44,2.17,4.39,4.39,0,0,0,.84,2.73,8,8,0,0,0,2.16,1.93,17.68,17.68,0,0,0,3,1.5l3.48,1.38c1.18.47,2.34,1,3.5,1.58a13.47,13.47,0,0,1,3.06,2.13,9.5,9.5,0,0,1,2.15,3A9.88,9.88,0,0,1,1850,659Z"/></svg>